version 1
nodes
0 "root" -1
end
skeleton
time 0
0 0.000000 0.000000 0.000000 0.000000 0.000000 0.000000
end
triangles
grid_cell_valid
0 16.000000 -16.000000 0.000000 0.000000 0.000000 1.000000 1.000000 0.000000
0 16.000000 16.000000 0.000000 0.000000 0.000000 1.000000 1.000000 1.000000
0 -16.000000 16.000000 0.000000 0.000000 0.000000 1.000000 0.000000 1.000000
grid_cell_valid
0 -16.000000 -16.000000 0.000000 0.000000 0.000000 1.000000 0.000000 0.000000
0 16.000000 -16.000000 0.000000 0.000000 0.000000 1.000000 1.000000 0.000000
0 -16.000000 16.000000 0.000000 0.000000 0.000000 1.000000 0.000000 1.000000
grid_cell_valid
0 16.000000 -16.000000 0.000000 0.000000 0.000000 -1.000000 0.000000 0.000000
0 -16.000000 -16.000000 0.000000 0.000000 0.000000 -1.000000 1.000000 0.000000
0 -16.000000 16.000000 0.000000 0.000000 0.000000 -1.000000 1.000000 1.000000
grid_cell_valid
0 16.000000 16.000000 0.000000 0.000000 0.000000 -1.000000 0.000000 1.000000
0 16.000000 -16.000000 0.000000 0.000000 0.000000 -1.000000 0.000000 0.000000
0 -16.000000 16.000000 0.000000 0.000000 0.000000 -1.000000 1.000000 1.000000
end
